<svg xmlns="http://www.w3.org/2000/svg" viewBox="0 0 320 200" fill="none">
  <defs>
    <linearGradient id="goldLatticeGrad" x1="0%" y1="0%" x2="100%" y2="100%">
      <stop offset="0%" stop-color="#EAD088" stop-opacity="0.85"/>
      <stop offset="50%" stop-color="#CCA243" stop-opacity="0.65"/>
      <stop offset="100%" stop-color="#967222" stop-opacity="0.45"/>
    </linearGradient>
  </defs>
  <g stroke="url(#goldLatticeGrad)" stroke-width="1.1" stroke-linejoin="round">
    <path d="M -33.0 -81.4 L -16.0 -71.6 L 1.0 -81.4 L -16.0 -91.2 Z" />
    <path d="M -40.0 -69.3 L -40.0 -49.7 L -23.0 -39.8 L -23.0 -59.5 Z" />
    <path d="M -54.0 -69.3 L -71.0 -59.5 L -71.0 -39.8 L -54.0 -49.7 Z" />
    <path d="M -61.0 -81.4 L -78.0 -91.2 L -95.0 -81.4 L -78.0 -71.6 Z" />
    <path d="M -54.0 -93.5 L -54.0 -113.2 L -71.0 -123.0 L -71.0 -103.4 Z" />
    <path d="M -40.0 -93.5 L -23.0 -103.4 L -23.0 -123.0 L -40.0 -113.2 Z" />
    <path d="M 61.0 -81.4 L 78.0 -71.6 L 95.0 -81.4 L 78.0 -91.2 Z" />
    <path d="M 54.0 -69.3 L 54.0 -49.7 L 71.0 -39.8 L 71.0 -59.5 Z" />
    <path d="M 40.0 -69.3 L 23.0 -59.5 L 23.0 -39.8 L 40.0 -49.7 Z" />
    <path d="M 33.0 -81.4 L 16.0 -91.2 L -1.0 -81.4 L 16.0 -71.6 Z" />
    <path d="M 40.0 -93.5 L 40.0 -113.2 L 23.0 -123.0 L 23.0 -103.4 Z" />
    <path d="M 54.0 -93.5 L 71.0 -103.4 L 71.0 -123.0 L 54.0 -113.2 Z" />
    <path d="M 155.0 -81.4 L 172.0 -71.6 L 189.0 -81.4 L 172.0 -91.2 Z" />
    <path d="M 148.0 -69.3 L 148.0 -49.7 L 165.0 -39.8 L 165.0 -59.5 Z" />
    <path d="M 134.0 -69.3 L 117.0 -59.5 L 117.0 -39.8 L 134.0 -49.7 Z" />
    <path d="M 127.0 -81.4 L 110.0 -91.2 L 93.0 -81.4 L 110.0 -71.6 Z" />
    <path d="M 134.0 -93.5 L 134.0 -113.2 L 117.0 -123.0 L 117.0 -103.4 Z" />
    <path d="M 148.0 -93.5 L 165.0 -103.4 L 165.0 -123.0 L 148.0 -113.2 Z" />
    <path d="M 249.0 -81.4 L 266.0 -71.6 L 283.0 -81.4 L 266.0 -91.2 Z" />
    <path d="M 242.0 -69.3 L 242.0 -49.7 L 259.0 -39.8 L 259.0 -59.5 Z" />
    <path d="M 228.0 -69.3 L 211.0 -59.5 L 211.0 -39.8 L 228.0 -49.7 Z" />
    <path d="M 221.0 -81.4 L 204.0 -91.2 L 187.0 -81.4 L 204.0 -71.6 Z" />
    <path d="M 228.0 -93.5 L 228.0 -113.2 L 211.0 -123.0 L 211.0 -103.4 Z" />
    <path d="M 242.0 -93.5 L 259.0 -103.4 L 259.0 -123.0 L 242.0 -113.2 Z" />
    <path d="M 343.0 -81.4 L 360.0 -71.6 L 377.0 -81.4 L 360.0 -91.2 Z" />
    <path d="M 336.0 -69.3 L 336.0 -49.7 L 353.0 -39.8 L 353.0 -59.5 Z" />
    <path d="M 322.0 -69.3 L 305.0 -59.5 L 305.0 -39.8 L 322.0 -49.7 Z" />
    <path d="M 315.0 -81.4 L 298.0 -91.2 L 281.0 -81.4 L 298.0 -71.6 Z" />
    <path d="M 322.0 -93.5 L 322.0 -113.2 L 305.0 -123.0 L 305.0 -103.4 Z" />
    <path d="M 336.0 -93.5 L 353.0 -103.4 L 353.0 -123.0 L 336.0 -113.2 Z" />
    <path d="M 437.0 -81.4 L 454.0 -71.6 L 471.0 -81.4 L 454.0 -91.2 Z" />
    <path d="M 430.0 -69.3 L 430.0 -49.7 L 447.0 -39.8 L 447.0 -59.5 Z" />
    <path d="M 416.0 -69.3 L 399.0 -59.5 L 399.0 -39.8 L 416.0 -49.7 Z" />
    <path d="M 409.0 -81.4 L 392.0 -91.2 L 375.0 -81.4 L 392.0 -71.6 Z" />
    <path d="M 416.0 -93.5 L 416.0 -113.2 L 399.0 -123.0 L 399.0 -103.4 Z" />
    <path d="M 430.0 -93.5 L 447.0 -103.4 L 447.0 -123.0 L 430.0 -113.2 Z" />
    <path d="M 531.0 -81.4 L 548.0 -71.6 L 565.0 -81.4 L 548.0 -91.2 Z" />
    <path d="M 524.0 -69.3 L 524.0 -49.7 L 541.0 -39.8 L 541.0 -59.5 Z" />
    <path d="M 510.0 -69.3 L 493.0 -59.5 L 493.0 -39.8 L 510.0 -49.7 Z" />
    <path d="M 503.0 -81.4 L 486.0 -91.2 L 469.0 -81.4 L 486.0 -71.6 Z" />
    <path d="M 510.0 -93.5 L 510.0 -113.2 L 493.0 -123.0 L 493.0 -103.4 Z" />
    <path d="M 524.0 -93.5 L 541.0 -103.4 L 541.0 -123.0 L 524.0 -113.2 Z" />
    <path d="M -80.0 0.0 L -63.0 9.8 L -46.0 0.0 L -63.0 -9.8 Z" />
    <path d="M -87.0 12.1 L -87.0 31.7 L -70.0 41.6 L -70.0 21.9 Z" />
    <path d="M -101.0 12.1 L -118.0 21.9 L -118.0 41.6 L -101.0 31.7 Z" />
    <path d="M -108.0 0.0 L -125.0 -9.8 L -142.0 0.0 L -125.0 9.8 Z" />
    <path d="M -101.0 -12.1 L -101.0 -31.7 L -118.0 -41.6 L -118.0 -21.9 Z" />
    <path d="M -87.0 -12.1 L -70.0 -21.9 L -70.0 -41.6 L -87.0 -31.7 Z" />
    <path d="M 14.0 0.0 L 31.0 9.8 L 48.0 0.0 L 31.0 -9.8 Z" />
    <path d="M 7.0 12.1 L 7.0 31.7 L 24.0 41.6 L 24.0 21.9 Z" />
    <path d="M -7.0 12.1 L -24.0 21.9 L -24.0 41.6 L -7.0 31.7 Z" />
    <path d="M -14.0 0.0 L -31.0 -9.8 L -48.0 0.0 L -31.0 9.8 Z" />
    <path d="M -7.0 -12.1 L -7.0 -31.7 L -24.0 -41.6 L -24.0 -21.9 Z" />
    <path d="M 7.0 -12.1 L 24.0 -21.9 L 24.0 -41.6 L 7.0 -31.7 Z" />
    <path d="M 108.0 0.0 L 125.0 9.8 L 142.0 0.0 L 125.0 -9.8 Z" />
    <path d="M 101.0 12.1 L 101.0 31.7 L 118.0 41.6 L 118.0 21.9 Z" />
    <path d="M 87.0 12.1 L 70.0 21.9 L 70.0 41.6 L 87.0 31.7 Z" />
    <path d="M 80.0 0.0 L 63.0 -9.8 L 46.0 0.0 L 63.0 9.8 Z" />
    <path d="M 87.0 -12.1 L 87.0 -31.7 L 70.0 -41.6 L 70.0 -21.9 Z" />
    <path d="M 101.0 -12.1 L 118.0 -21.9 L 118.0 -41.6 L 101.0 -31.7 Z" />
    <path d="M 202.0 0.0 L 219.0 9.8 L 236.0 0.0 L 219.0 -9.8 Z" />
    <path d="M 195.0 12.1 L 195.0 31.7 L 212.0 41.6 L 212.0 21.9 Z" />
    <path d="M 181.0 12.1 L 164.0 21.9 L 164.0 41.6 L 181.0 31.7 Z" />
    <path d="M 174.0 0.0 L 157.0 -9.8 L 140.0 0.0 L 157.0 9.8 Z" />
    <path d="M 181.0 -12.1 L 181.0 -31.7 L 164.0 -41.6 L 164.0 -21.9 Z" />
    <path d="M 195.0 -12.1 L 212.0 -21.9 L 212.0 -41.6 L 195.0 -31.7 Z" />
    <path d="M 296.0 0.0 L 313.0 9.8 L 330.0 0.0 L 313.0 -9.8 Z" />
    <path d="M 289.0 12.1 L 289.0 31.7 L 306.0 41.6 L 306.0 21.9 Z" />
    <path d="M 275.0 12.1 L 258.0 21.9 L 258.0 41.6 L 275.0 31.7 Z" />
    <path d="M 268.0 0.0 L 251.0 -9.8 L 234.0 0.0 L 251.0 9.8 Z" />
    <path d="M 275.0 -12.1 L 275.0 -31.7 L 258.0 -41.6 L 258.0 -21.9 Z" />
    <path d="M 289.0 -12.1 L 306.0 -21.9 L 306.0 -41.6 L 289.0 -31.7 Z" />
    <path d="M 390.0 0.0 L 407.0 9.8 L 424.0 0.0 L 407.0 -9.8 Z" />
    <path d="M 383.0 12.1 L 383.0 31.7 L 400.0 41.6 L 400.0 21.9 Z" />
    <path d="M 369.0 12.1 L 352.0 21.9 L 352.0 41.6 L 369.0 31.7 Z" />
    <path d="M 362.0 0.0 L 345.0 -9.8 L 328.0 0.0 L 345.0 9.8 Z" />
    <path d="M 369.0 -12.1 L 369.0 -31.7 L 352.0 -41.6 L 352.0 -21.9 Z" />
    <path d="M 383.0 -12.1 L 400.0 -21.9 L 400.0 -41.6 L 383.0 -31.7 Z" />
    <path d="M 484.0 0.0 L 501.0 9.8 L 518.0 0.0 L 501.0 -9.8 Z" />
    <path d="M 477.0 12.1 L 477.0 31.7 L 494.0 41.6 L 494.0 21.9 Z" />
    <path d="M 463.0 12.1 L 446.0 21.9 L 446.0 41.6 L 463.0 31.7 Z" />
    <path d="M 456.0 0.0 L 439.0 -9.8 L 422.0 0.0 L 439.0 9.8 Z" />
    <path d="M 463.0 -12.1 L 463.0 -31.7 L 446.0 -41.6 L 446.0 -21.9 Z" />
    <path d="M 477.0 -12.1 L 494.0 -21.9 L 494.0 -41.6 L 477.0 -31.7 Z" />
    <path d="M -33.0 81.4 L -16.0 91.2 L 1.0 81.4 L -16.0 71.6 Z" />
    <path d="M -40.0 93.5 L -40.0 113.2 L -23.0 123.0 L -23.0 103.4 Z" />
    <path d="M -54.0 93.5 L -71.0 103.4 L -71.0 123.0 L -54.0 113.2 Z" />
    <path d="M -61.0 81.4 L -78.0 71.6 L -95.0 81.4 L -78.0 91.2 Z" />
    <path d="M -54.0 69.3 L -54.0 49.7 L -71.0 39.8 L -71.0 59.5 Z" />
    <path d="M -40.0 69.3 L -23.0 59.5 L -23.0 39.8 L -40.0 49.7 Z" />
    <path d="M 61.0 81.4 L 78.0 91.2 L 95.0 81.4 L 78.0 71.6 Z" />
    <path d="M 54.0 93.5 L 54.0 113.2 L 71.0 123.0 L 71.0 103.4 Z" />
    <path d="M 40.0 93.5 L 23.0 103.4 L 23.0 123.0 L 40.0 113.2 Z" />
    <path d="M 33.0 81.4 L 16.0 71.6 L -1.0 81.4 L 16.0 91.2 Z" />
    <path d="M 40.0 69.3 L 40.0 49.7 L 23.0 39.8 L 23.0 59.5 Z" />
    <path d="M 54.0 69.3 L 71.0 59.5 L 71.0 39.8 L 54.0 49.7 Z" />
    <path d="M 155.0 81.4 L 172.0 91.2 L 189.0 81.4 L 172.0 71.6 Z" />
    <path d="M 148.0 93.5 L 148.0 113.2 L 165.0 123.0 L 165.0 103.4 Z" />
    <path d="M 134.0 93.5 L 117.0 103.4 L 117.0 123.0 L 134.0 113.2 Z" />
    <path d="M 127.0 81.4 L 110.0 71.6 L 93.0 81.4 L 110.0 91.2 Z" />
    <path d="M 134.0 69.3 L 134.0 49.7 L 117.0 39.8 L 117.0 59.5 Z" />
    <path d="M 148.0 69.3 L 165.0 59.5 L 165.0 39.8 L 148.0 49.7 Z" />
    <path d="M 249.0 81.4 L 266.0 91.2 L 283.0 81.4 L 266.0 71.6 Z" />
    <path d="M 242.0 93.5 L 242.0 113.2 L 259.0 123.0 L 259.0 103.4 Z" />
    <path d="M 228.0 93.5 L 211.0 103.4 L 211.0 123.0 L 228.0 113.2 Z" />
    <path d="M 221.0 81.4 L 204.0 71.6 L 187.0 81.4 L 204.0 91.2 Z" />
    <path d="M 228.0 69.3 L 228.0 49.7 L 211.0 39.8 L 211.0 59.5 Z" />
    <path d="M 242.0 69.3 L 259.0 59.5 L 259.0 39.8 L 242.0 49.7 Z" />
    <path d="M 343.0 81.4 L 360.0 91.2 L 377.0 81.4 L 360.0 71.6 Z" />
    <path d="M 336.0 93.5 L 336.0 113.2 L 353.0 123.0 L 353.0 103.4 Z" />
    <path d="M 322.0 93.5 L 305.0 103.4 L 305.0 123.0 L 322.0 113.2 Z" />
    <path d="M 315.0 81.4 L 298.0 71.6 L 281.0 81.4 L 298.0 91.2 Z" />
    <path d="M 322.0 69.3 L 322.0 49.7 L 305.0 39.8 L 305.0 59.5 Z" />
    <path d="M 336.0 69.3 L 353.0 59.5 L 353.0 39.8 L 336.0 49.7 Z" />
    <path d="M 437.0 81.4 L 454.0 91.2 L 471.0 81.4 L 454.0 71.6 Z" />
    <path d="M 430.0 93.5 L 430.0 113.2 L 447.0 123.0 L 447.0 103.4 Z" />
    <path d="M 416.0 93.5 L 399.0 103.4 L 399.0 123.0 L 416.0 113.2 Z" />
    <path d="M 409.0 81.4 L 392.0 71.6 L 375.0 81.4 L 392.0 91.2 Z" />
    <path d="M 416.0 69.3 L 416.0 49.7 L 399.0 39.8 L 399.0 59.5 Z" />
    <path d="M 430.0 69.3 L 447.0 59.5 L 447.0 39.8 L 430.0 49.7 Z" />
    <path d="M 531.0 81.4 L 548.0 91.2 L 565.0 81.4 L 548.0 71.6 Z" />
    <path d="M 524.0 93.5 L 524.0 113.2 L 541.0 123.0 L 541.0 103.4 Z" />
    <path d="M 510.0 93.5 L 493.0 103.4 L 493.0 123.0 L 510.0 113.2 Z" />
    <path d="M 503.0 81.4 L 486.0 71.6 L 469.0 81.4 L 486.0 91.2 Z" />
    <path d="M 510.0 69.3 L 510.0 49.7 L 493.0 39.8 L 493.0 59.5 Z" />
    <path d="M 524.0 69.3 L 541.0 59.5 L 541.0 39.8 L 524.0 49.7 Z" />
    <path d="M -80.0 162.8 L -63.0 172.6 L -46.0 162.8 L -63.0 153.0 Z" />
    <path d="M -87.0 174.9 L -87.0 194.6 L -70.0 204.4 L -70.0 184.8 Z" />
    <path d="M -101.0 174.9 L -118.0 184.8 L -118.0 204.4 L -101.0 194.6 Z" />
    <path d="M -108.0 162.8 L -125.0 153.0 L -142.0 162.8 L -125.0 172.6 Z" />
    <path d="M -101.0 150.7 L -101.0 131.1 L -118.0 121.2 L -118.0 140.9 Z" />
    <path d="M -87.0 150.7 L -70.0 140.9 L -70.0 121.2 L -87.0 131.1 Z" />
    <path d="M 14.0 162.8 L 31.0 172.6 L 48.0 162.8 L 31.0 153.0 Z" />
    <path d="M 7.0 174.9 L 7.0 194.6 L 24.0 204.4 L 24.0 184.8 Z" />
    <path d="M -7.0 174.9 L -24.0 184.8 L -24.0 204.4 L -7.0 194.6 Z" />
    <path d="M -14.0 162.8 L -31.0 153.0 L -48.0 162.8 L -31.0 172.6 Z" />
    <path d="M -7.0 150.7 L -7.0 131.1 L -24.0 121.2 L -24.0 140.9 Z" />
    <path d="M 7.0 150.7 L 24.0 140.9 L 24.0 121.2 L 7.0 131.1 Z" />
    <path d="M 108.0 162.8 L 125.0 172.6 L 142.0 162.8 L 125.0 153.0 Z" />
    <path d="M 101.0 174.9 L 101.0 194.6 L 118.0 204.4 L 118.0 184.8 Z" />
    <path d="M 87.0 174.9 L 70.0 184.8 L 70.0 204.4 L 87.0 194.6 Z" />
    <path d="M 80.0 162.8 L 63.0 153.0 L 46.0 162.8 L 63.0 172.6 Z" />
    <path d="M 87.0 150.7 L 87.0 131.1 L 70.0 121.2 L 70.0 140.9 Z" />
    <path d="M 101.0 150.7 L 118.0 140.9 L 118.0 121.2 L 101.0 131.1 Z" />
    <path d="M 202.0 162.8 L 219.0 172.6 L 236.0 162.8 L 219.0 153.0 Z" />
    <path d="M 195.0 174.9 L 195.0 194.6 L 212.0 204.4 L 212.0 184.8 Z" />
    <path d="M 181.0 174.9 L 164.0 184.8 L 164.0 204.4 L 181.0 194.6 Z" />
    <path d="M 174.0 162.8 L 157.0 153.0 L 140.0 162.8 L 157.0 172.6 Z" />
    <path d="M 181.0 150.7 L 181.0 131.1 L 164.0 121.2 L 164.0 140.9 Z" />
    <path d="M 195.0 150.7 L 212.0 140.9 L 212.0 121.2 L 195.0 131.1 Z" />
    <path d="M 296.0 162.8 L 313.0 172.6 L 330.0 162.8 L 313.0 153.0 Z" />
    <path d="M 289.0 174.9 L 289.0 194.6 L 306.0 204.4 L 306.0 184.8 Z" />
    <path d="M 275.0 174.9 L 258.0 184.8 L 258.0 204.4 L 275.0 194.6 Z" />
    <path d="M 268.0 162.8 L 251.0 153.0 L 234.0 162.8 L 251.0 172.6 Z" />
    <path d="M 275.0 150.7 L 275.0 131.1 L 258.0 121.2 L 258.0 140.9 Z" />
    <path d="M 289.0 150.7 L 306.0 140.9 L 306.0 121.2 L 289.0 131.1 Z" />
    <path d="M 390.0 162.8 L 407.0 172.6 L 424.0 162.8 L 407.0 153.0 Z" />
    <path d="M 383.0 174.9 L 383.0 194.6 L 400.0 204.4 L 400.0 184.8 Z" />
    <path d="M 369.0 174.9 L 352.0 184.8 L 352.0 204.4 L 369.0 194.6 Z" />
    <path d="M 362.0 162.8 L 345.0 153.0 L 328.0 162.8 L 345.0 172.6 Z" />
    <path d="M 369.0 150.7 L 369.0 131.1 L 352.0 121.2 L 352.0 140.9 Z" />
    <path d="M 383.0 150.7 L 400.0 140.9 L 400.0 121.2 L 383.0 131.1 Z" />
    <path d="M 484.0 162.8 L 501.0 172.6 L 518.0 162.8 L 501.0 153.0 Z" />
    <path d="M 477.0 174.9 L 477.0 194.6 L 494.0 204.4 L 494.0 184.8 Z" />
    <path d="M 463.0 174.9 L 446.0 184.8 L 446.0 204.4 L 463.0 194.6 Z" />
    <path d="M 456.0 162.8 L 439.0 153.0 L 422.0 162.8 L 439.0 172.6 Z" />
    <path d="M 463.0 150.7 L 463.0 131.1 L 446.0 121.2 L 446.0 140.9 Z" />
    <path d="M 477.0 150.7 L 494.0 140.9 L 494.0 121.2 L 477.0 131.1 Z" />
    <path d="M -33.0 244.2 L -16.0 254.0 L 1.0 244.2 L -16.0 234.4 Z" />
    <path d="M -40.0 256.3 L -40.0 276.0 L -23.0 285.8 L -23.0 266.2 Z" />
    <path d="M -54.0 256.3 L -71.0 266.2 L -71.0 285.8 L -54.0 276.0 Z" />
    <path d="M -61.0 244.2 L -78.0 234.4 L -95.0 244.2 L -78.0 254.0 Z" />
    <path d="M -54.0 232.1 L -54.0 212.5 L -71.0 202.6 L -71.0 222.3 Z" />
    <path d="M -40.0 232.1 L -23.0 222.3 L -23.0 202.6 L -40.0 212.5 Z" />
    <path d="M 61.0 244.2 L 78.0 254.0 L 95.0 244.2 L 78.0 234.4 Z" />
    <path d="M 54.0 256.3 L 54.0 276.0 L 71.0 285.8 L 71.0 266.2 Z" />
    <path d="M 40.0 256.3 L 23.0 266.2 L 23.0 285.8 L 40.0 276.0 Z" />
    <path d="M 33.0 244.2 L 16.0 234.4 L -1.0 244.2 L 16.0 254.0 Z" />
    <path d="M 40.0 232.1 L 40.0 212.5 L 23.0 202.6 L 23.0 222.3 Z" />
    <path d="M 54.0 232.1 L 71.0 222.3 L 71.0 202.6 L 54.0 212.5 Z" />
    <path d="M 155.0 244.2 L 172.0 254.0 L 189.0 244.2 L 172.0 234.4 Z" />
    <path d="M 148.0 256.3 L 148.0 276.0 L 165.0 285.8 L 165.0 266.2 Z" />
    <path d="M 134.0 256.3 L 117.0 266.2 L 117.0 285.8 L 134.0 276.0 Z" />
    <path d="M 127.0 244.2 L 110.0 234.4 L 93.0 244.2 L 110.0 254.0 Z" />
    <path d="M 134.0 232.1 L 134.0 212.5 L 117.0 202.6 L 117.0 222.3 Z" />
    <path d="M 148.0 232.1 L 165.0 222.3 L 165.0 202.6 L 148.0 212.5 Z" />
    <path d="M 249.0 244.2 L 266.0 254.0 L 283.0 244.2 L 266.0 234.4 Z" />
    <path d="M 242.0 256.3 L 242.0 276.0 L 259.0 285.8 L 259.0 266.2 Z" />
    <path d="M 228.0 256.3 L 211.0 266.2 L 211.0 285.8 L 228.0 276.0 Z" />
    <path d="M 221.0 244.2 L 204.0 234.4 L 187.0 244.2 L 204.0 254.0 Z" />
    <path d="M 228.0 232.1 L 228.0 212.5 L 211.0 202.6 L 211.0 222.3 Z" />
    <path d="M 242.0 232.1 L 259.0 222.3 L 259.0 202.6 L 242.0 212.5 Z" />
    <path d="M 343.0 244.2 L 360.0 254.0 L 377.0 244.2 L 360.0 234.4 Z" />
    <path d="M 336.0 256.3 L 336.0 276.0 L 353.0 285.8 L 353.0 266.2 Z" />
    <path d="M 322.0 256.3 L 305.0 266.2 L 305.0 285.8 L 322.0 276.0 Z" />
    <path d="M 315.0 244.2 L 298.0 234.4 L 281.0 244.2 L 298.0 254.0 Z" />
    <path d="M 322.0 232.1 L 322.0 212.5 L 305.0 202.6 L 305.0 222.3 Z" />
    <path d="M 336.0 232.1 L 353.0 222.3 L 353.0 202.6 L 336.0 212.5 Z" />
    <path d="M 437.0 244.2 L 454.0 254.0 L 471.0 244.2 L 454.0 234.4 Z" />
    <path d="M 430.0 256.3 L 430.0 276.0 L 447.0 285.8 L 447.0 266.2 Z" />
    <path d="M 416.0 256.3 L 399.0 266.2 L 399.0 285.8 L 416.0 276.0 Z" />
    <path d="M 409.0 244.2 L 392.0 234.4 L 375.0 244.2 L 392.0 254.0 Z" />
    <path d="M 416.0 232.1 L 416.0 212.5 L 399.0 202.6 L 399.0 222.3 Z" />
    <path d="M 430.0 232.1 L 447.0 222.3 L 447.0 202.6 L 430.0 212.5 Z" />
    <path d="M 531.0 244.2 L 548.0 254.0 L 565.0 244.2 L 548.0 234.4 Z" />
    <path d="M 524.0 256.3 L 524.0 276.0 L 541.0 285.8 L 541.0 266.2 Z" />
    <path d="M 510.0 256.3 L 493.0 266.2 L 493.0 285.8 L 510.0 276.0 Z" />
    <path d="M 503.0 244.2 L 486.0 234.4 L 469.0 244.2 L 486.0 254.0 Z" />
    <path d="M 510.0 232.1 L 510.0 212.5 L 493.0 202.6 L 493.0 222.3 Z" />
    <path d="M 524.0 232.1 L 541.0 222.3 L 541.0 202.6 L 524.0 212.5 Z" />
    <path d="M -80.0 325.6 L -63.0 335.4 L -46.0 325.6 L -63.0 315.8 Z" />
    <path d="M -87.0 337.7 L -87.0 357.4 L -70.0 367.2 L -70.0 347.6 Z" />
    <path d="M -101.0 337.7 L -118.0 347.6 L -118.0 367.2 L -101.0 357.4 Z" />
    <path d="M -108.0 325.6 L -125.0 315.8 L -142.0 325.6 L -125.0 335.4 Z" />
    <path d="M -101.0 313.5 L -101.0 293.9 L -118.0 284.1 L -118.0 303.7 Z" />
    <path d="M -87.0 313.5 L -70.0 303.7 L -70.0 284.1 L -87.0 293.9 Z" />
    <path d="M 14.0 325.6 L 31.0 335.4 L 48.0 325.6 L 31.0 315.8 Z" />
    <path d="M 7.0 337.7 L 7.0 357.4 L 24.0 367.2 L 24.0 347.6 Z" />
    <path d="M -7.0 337.7 L -24.0 347.6 L -24.0 367.2 L -7.0 357.4 Z" />
    <path d="M -14.0 325.6 L -31.0 315.8 L -48.0 325.6 L -31.0 335.4 Z" />
    <path d="M -7.0 313.5 L -7.0 293.9 L -24.0 284.1 L -24.0 303.7 Z" />
    <path d="M 7.0 313.5 L 24.0 303.7 L 24.0 284.1 L 7.0 293.9 Z" />
    <path d="M 108.0 325.6 L 125.0 335.4 L 142.0 325.6 L 125.0 315.8 Z" />
    <path d="M 101.0 337.7 L 101.0 357.4 L 118.0 367.2 L 118.0 347.6 Z" />
    <path d="M 87.0 337.7 L 70.0 347.6 L 70.0 367.2 L 87.0 357.4 Z" />
    <path d="M 80.0 325.6 L 63.0 315.8 L 46.0 325.6 L 63.0 335.4 Z" />
    <path d="M 87.0 313.5 L 87.0 293.9 L 70.0 284.1 L 70.0 303.7 Z" />
    <path d="M 101.0 313.5 L 118.0 303.7 L 118.0 284.1 L 101.0 293.9 Z" />
    <path d="M 202.0 325.6 L 219.0 335.4 L 236.0 325.6 L 219.0 315.8 Z" />
    <path d="M 195.0 337.7 L 195.0 357.4 L 212.0 367.2 L 212.0 347.6 Z" />
    <path d="M 181.0 337.7 L 164.0 347.6 L 164.0 367.2 L 181.0 357.4 Z" />
    <path d="M 174.0 325.6 L 157.0 315.8 L 140.0 325.6 L 157.0 335.4 Z" />
    <path d="M 181.0 313.5 L 181.0 293.9 L 164.0 284.1 L 164.0 303.7 Z" />
    <path d="M 195.0 313.5 L 212.0 303.7 L 212.0 284.1 L 195.0 293.9 Z" />
    <path d="M 296.0 325.6 L 313.0 335.4 L 330.0 325.6 L 313.0 315.8 Z" />
    <path d="M 289.0 337.7 L 289.0 357.4 L 306.0 367.2 L 306.0 347.6 Z" />
    <path d="M 275.0 337.7 L 258.0 347.6 L 258.0 367.2 L 275.0 357.4 Z" />
    <path d="M 268.0 325.6 L 251.0 315.8 L 234.0 325.6 L 251.0 335.4 Z" />
    <path d="M 275.0 313.5 L 275.0 293.9 L 258.0 284.1 L 258.0 303.7 Z" />
    <path d="M 289.0 313.5 L 306.0 303.7 L 306.0 284.1 L 289.0 293.9 Z" />
    <path d="M 390.0 325.6 L 407.0 335.4 L 424.0 325.6 L 407.0 315.8 Z" />
    <path d="M 383.0 337.7 L 383.0 357.4 L 400.0 367.2 L 400.0 347.6 Z" />
    <path d="M 369.0 337.7 L 352.0 347.6 L 352.0 367.2 L 369.0 357.4 Z" />
    <path d="M 362.0 325.6 L 345.0 315.8 L 328.0 325.6 L 345.0 335.4 Z" />
    <path d="M 369.0 313.5 L 369.0 293.9 L 352.0 284.1 L 352.0 303.7 Z" />
    <path d="M 383.0 313.5 L 400.0 303.7 L 400.0 284.1 L 383.0 293.9 Z" />
    <path d="M 484.0 325.6 L 501.0 335.4 L 518.0 325.6 L 501.0 315.8 Z" />
    <path d="M 477.0 337.7 L 477.0 357.4 L 494.0 367.2 L 494.0 347.6 Z" />
    <path d="M 463.0 337.7 L 446.0 347.6 L 446.0 367.2 L 463.0 357.4 Z" />
    <path d="M 456.0 325.6 L 439.0 315.8 L 422.0 325.6 L 439.0 335.4 Z" />
    <path d="M 463.0 313.5 L 463.0 293.9 L 446.0 284.1 L 446.0 303.7 Z" />
    <path d="M 477.0 313.5 L 494.0 303.7 L 494.0 284.1 L 477.0 293.9 Z" />
  </g>
</svg>